<svg width="388.7150146484375px" height="131.36000366210936px" xmlns="http://www.w3.org/2000/svg" viewBox="55.642492675781256 9.319998168945318 388.7150146484375 131.36000366210936" style="background:#596886" preserveAspectRatio="xMidYMid"><defs><filter id="editing-hover" x="-100%" y="-100%" width="300%" height="300%"><feFlood flood-color="#052b4a" result="flood"></feFlood><feComposite operator="in" in2="SourceAlpha" in="flood" result="shadow"></feComposite><feOffset dx="-4" dy="-4" in="SourceGraphic" result="offset-1"></feOffset><feOffset dx="4" dy="4" in="shadow" result="offset-2"></feOffset><feMerge><feMergeNode in="offset-2"></feMergeNode><feMergeNode in="offset-1"></feMergeNode></feMerge></filter></defs><g filter="url(#editing-hover)"><g transform="translate(114.9200210571289, 97.40500068664551)"><path d="M45.22-44.81L45.22-36.69L27.31-36.69L27.31 0L19.19 0L19.19-36.69L1.25-36.69L1.25-44.81L45.22-44.81ZM59.38-44.81L59.38 0L51.25 0L51.25-44.81L59.38-44.81ZM75.66-44.81L89.34-28.81L103.03-44.81L114.13-44.81L94.84-22.34L114 0L102.97 0L89.34-15.88L75.78 0L64.72 0L83.84-22.34L64.66-44.81L75.66-44.81ZM163.22-40.72L163.22 0L155.09 0L155.09-11L126.53-11L126.53 0L118.41 0L118.41-22.41L118.41-22.41Q118.41-27.31 120.09-31.44L120.09-31.44L120.09-31.44Q121.78-35.56 124.78-38.53L124.78-38.53L124.78-38.53Q127.78-41.50 131.88-43.16L131.88-43.16L131.88-43.16Q135.97-44.81 140.81-44.81L140.81-44.81L159.13-44.81L159.13-44.81Q159.97-44.81 160.72-44.50L160.72-44.50L160.72-44.50Q161.47-44.19 162.03-43.63L162.03-43.63L162.03-43.63Q162.59-43.06 162.91-42.31L162.91-42.31L162.91-42.31Q163.22-41.56 163.22-40.72L163.22-40.72ZM126.53-22.41L126.53-19.13L155.09-19.13L155.09-36.69L140.81-36.69L140.81-36.69Q140.44-36.69 139.23-36.58L139.23-36.58L139.23-36.58Q138.03-36.47 136.45-36.03L136.45-36.03L136.45-36.03Q134.88-35.59 133.13-34.69L133.13-34.69L133.13-34.69Q131.38-33.78 129.91-32.19L129.91-32.19L129.91-32.19Q128.44-30.59 127.48-28.20L127.48-28.20L127.48-28.20Q126.53-25.81 126.53-22.41L126.53-22.41ZM217.31-29.75L217.31-26.06L217.31-26.06Q217.31-23.28 216.63-21.09L216.63-21.09L216.63-21.09Q215.94-18.91 214.77-17.23L214.77-17.23L214.77-17.23Q213.59-15.56 212.06-14.38L212.06-14.38L212.06-14.38Q210.53-13.19 208.86-12.44L208.86-12.44L208.86-12.44Q207.19-11.69 205.48-11.34L205.48-11.34L205.48-11.34Q203.78-11 202.28-11L202.28-11L183.91-11L183.91-19.13L202.28-19.13L202.28-19.13Q203.84-19.25 205.11-19.77L205.11-19.77L205.11-19.77Q206.38-20.28 207.28-21.16L207.28-21.16L207.28-21.16Q208.19-22.03 208.69-23.27L208.69-23.27L208.69-23.27Q209.19-24.50 209.19-26.06L209.19-26.06L209.19-29.75L209.19-29.75Q209.03-31.28 208.53-32.56L208.53-32.56L208.53-32.56Q208.03-33.84 207.17-34.75L207.17-34.75L207.17-34.75Q206.31-35.66 205.09-36.17L205.09-36.17L205.09-36.17Q203.88-36.69 202.28-36.69L202.28-36.69L183.97-36.69L183.97-36.69Q182.34-36.69 181.50-35.84L181.50-35.84L181.50-35.84Q180.66-35 180.66-33.41L180.66-33.41L180.66 0L172.53 0L172.53-33.41L172.53-33.41Q172.53-36.53 173.67-38.72L173.67-38.72L173.67-38.72Q174.81-40.91 176.52-42.25L176.52-42.25L176.52-42.25Q178.22-43.59 180.22-44.20L180.22-44.20L180.22-44.20Q182.22-44.81 183.91-44.81L183.91-44.81L202.28-44.81L202.28-44.81Q205.03-44.81 207.22-44.11L207.22-44.11L207.22-44.11Q209.41-43.41 211.08-42.23L211.08-42.23L211.08-42.23Q212.75-41.06 213.92-39.53L213.92-39.53L213.92-39.53Q215.09-38 215.86-36.33L215.86-36.33L215.86-36.33Q216.63-34.66 216.97-32.95L216.97-32.95L216.97-32.95Q217.31-31.25 217.31-29.75L217.31-29.75ZM268.91-29.75L268.91-26.06L268.91-26.06Q268.91-23.28 268.22-21.09L268.22-21.09L268.22-21.09Q267.53-18.91 266.36-17.23L266.36-17.23L266.36-17.23Q265.19-15.56 263.66-14.38L263.66-14.38L263.66-14.38Q262.13-13.19 260.45-12.44L260.45-12.44L260.45-12.44Q258.78-11.69 257.08-11.34L257.08-11.34L257.08-11.34Q255.38-11 253.88-11L253.88-11L235.50-11L235.50-19.13L253.88-19.13L253.88-19.13Q255.44-19.25 256.70-19.77L256.70-19.77L256.70-19.77Q257.97-20.28 258.88-21.16L258.88-21.16L258.88-21.16Q259.78-22.03 260.28-23.27L260.28-23.27L260.28-23.27Q260.78-24.50 260.78-26.06L260.78-26.06L260.78-29.75L260.78-29.75Q260.63-31.28 260.13-32.56L260.13-32.56L260.13-32.56Q259.63-33.84 258.77-34.75L258.77-34.75L258.77-34.75Q257.91-35.66 256.69-36.17L256.69-36.17L256.69-36.17Q255.47-36.69 253.88-36.69L253.88-36.69L235.56-36.69L235.56-36.69Q233.94-36.69 233.09-35.84L233.09-35.84L233.09-35.84Q232.25-35 232.25-33.41L232.25-33.41L232.25 0L224.13 0L224.13-33.41L224.13-33.41Q224.13-36.53 225.27-38.72L225.27-38.72L225.27-38.72Q226.41-40.91 228.11-42.25L228.11-42.25L228.11-42.25Q229.81-43.59 231.81-44.20L231.81-44.20L231.81-44.20Q233.81-44.81 235.50-44.81L235.50-44.81L253.88-44.81L253.88-44.81Q256.63-44.81 258.81-44.11L258.81-44.11L258.81-44.11Q261-43.41 262.67-42.23L262.67-42.23L262.67-42.23Q264.34-41.06 265.52-39.53L265.52-39.53L265.52-39.53Q266.69-38 267.45-36.33L267.45-36.33L267.45-36.33Q268.22-34.66 268.56-32.95L268.56-32.95L268.56-32.95Q268.91-31.25 268.91-29.75L268.91-29.75Z" fill="#ffd5af"></path></g></g><style>text {
  font-size: 64px;
  font-family: Arial Black;
  dominant-baseline: central;
  text-anchor: middle;
}</style></svg>